Coordinates
version=1
nRows=11
nColumns=26
inDegrees=yes

Units are S.I. units (second, meters, Newtons, ...)
Angles are in degrees.

endheader
time	pelvis_tilt	pelvis_list	pelvis_rotation	pelvis_tx	pelvis_ty	pelvis_tz	hip_flexion_r	hip_adduction_r	hip_rotation_r	knee_angle_r	knee_angle_r_beta	ankle_angle_r	subtalar_angle_r	mtp_angle_r	hip_flexion_l	hip_adduction_l	hip_rotation_l	knee_angle_l	knee_angle_l_beta	ankle_angle_l	subtalar_angle_l	mtp_angle_l	lumbar_extension	lumbar_bending	lumbar_rotation
      1.46000000	    -22.51815627	      8.86843456	      5.62567798	      1.42693071	      0.96744965	      0.33836281	     -5.34785365	     -9.71206873	    -11.21486547	     19.19375322	      0.33499419	    -28.11671840	      0.00000000	      0.00000000	     55.31791297	      9.50339520	     -6.88124154	     45.49649634	      0.79406366	      6.37105080	      0.00000000	      0.00000000	     16.26597598	    -12.45990277	     10.40341887
      1.46400000	    -22.90559144	      8.88589168	      5.86066480	      1.44358938	      0.96853383	      0.33780487	     -5.52964365	     -9.80522767	    -11.39398185	     19.59233951	      0.34195083	    -28.30761854	      0.00000000	      0.00000000	     55.12074184	      9.91307687	     -6.86742950	     41.90409289	      0.73136439	      5.72039049	      0.00000000	      0.00000000	     16.86421927	    -12.67859808	     10.63248543
      1.46800000	    -23.15449078	      8.80660020	      5.95808644	      1.45998130	      0.96955063	      0.33741725	     -5.77021689	     -9.76264520	    -11.23751439	     20.05274227	      0.34998638	    -28.18583099	      0.00000000	      0.00000000	     54.79240700	     10.15426018	     -6.78440469	     38.38452540	      0.66993635	      5.19162692	      0.00000000	      0.00000000	     17.27560511	    -12.72493537	     10.85872406
      1.47200000	    -23.32100519	      8.47670163	      5.96852884	      1.47653540	      0.97033990	      0.33728021	     -6.03390281	     -9.43549070	    -11.01700589	     20.55173766	      0.35869549	    -27.93422936	      0.00000000	      0.00000000	     54.46777398	     10.05793322	     -6.88920473	     35.20849452	      0.61450415	      4.83111274	      0.00000000	      0.00000000	     17.64474641	    -12.46359590	     11.14513375
      1.47600000	    -23.40875816	      8.66417273	      6.03587208	      1.49284557	      0.97122421	      0.33688700	     -6.34315080	     -9.67741094	    -10.64435315	     21.36468109	      0.37288403	    -27.16197553	      0.00000000	      0.00000000	     53.85448815	     10.47212537	     -7.02152072	     31.59220841	      0.55138805	      3.93505625	      0.00000000	      0.00000000	     17.80219329	    -12.79242664	     11.51704476
      1.48000000	    -23.33469748	      8.39194372	      6.00453155	      1.50915945	      0.97193638	      0.33669980	     -6.73652344	     -9.37078534	     -9.99835265	     22.12771506	      0.38620148	    -26.58614123	      0.00000000	      0.00000000	     53.24669117	     10.44186246	     -6.95467758	     28.46571662	      0.49682048	      3.54747657	      0.00000000	      0.00000000	     17.83573936	    -12.55459873	     11.72726103
      1.48400000	    -23.19890968	      8.19248169	      5.94458672	      1.52546103	      0.97250218	      0.33648022	     -7.14071192	     -9.16487223	     -9.42517539	     23.03182593	      0.40198120	    -25.64589761	      0.00000000	      0.00000000	     52.57796114	     10.41714388	     -7.10765616	     25.44755639	      0.44414365	      2.97052897	      0.00000000	      0.00000000	     17.71383851	    -12.38398191	     11.94977698
      1.48800000	    -22.99403746	      7.87047766	      5.85070590	      1.54166311	      0.97290687	      0.33628383	     -7.54943427	     -8.79952776	     -8.60170021	     24.03752783	      0.41953400	    -24.89177185	      0.00000000	      0.00000000	     51.90825304	     10.28575144	     -7.20311133	     22.67351822	      0.39572755	      2.65612086	      0.00000000	      0.00000000	     17.55339496	    -12.04992070	     12.19111658
      1.49200000	    -22.71835961	      7.46868910	      5.71808816	      1.55781878	      0.97319789	      0.33613787	     -7.93905257	     -8.33918707	     -7.70549394	     25.14659986	      0.43889096	    -24.00050179	      0.00000000	      0.00000000	     51.20935052	     10.06152160	     -7.29837510	     20.11318451	      0.35104129	      2.54729420	      0.00000000	      0.00000000	     17.26693033	    -11.60576794	     12.32658774
      1.49600000	    -22.34310688	      7.00721643	      5.56814321	      1.57387317	      0.97334964	      0.33605327	     -8.36960232	     -7.79916516	     -6.62308100	     26.37465684	      0.46032460	    -23.22863634	      0.00000000	      0.00000000	     50.48202588	      9.77280573	     -7.34248458	     17.83818306	      0.31133503	      2.76940687	      0.00000000	      0.00000000	     16.81920101	    -11.11240593	     12.53352067
      1.50000000	    -22.06027201	      6.61413697	      5.41240200	      1.58999348	      0.97323234	      0.33595566	     -8.62162225	     -7.36439006	     -5.66348211	     27.80179062	      0.48523278	    -22.18200683	      0.00000000	      0.00000000	     49.81219497	      9.53281250	     -7.58468055	     15.61691529	      0.27256659	      2.82602840	      0.00000000	      0.00000000	     16.52670182	    -10.67517232	     12.64246128
